<svg width="1030" height="380" xmlns="http://www.w3.org/2000/svg"><style>line,path,rect{stroke:#000;stroke-width:2}.red{fill:#f99}.yellow{fill:#ff9}.green{fill:#9f9}.teal{fill:#9ff}.blue{fill:#99f}.purple{fill:#f9f}text{font-family:Helvetica,Arial,sans-serif;font-size:22px;fill:#000}.dotted{stroke-dasharray:6,3}marker path,path path{stroke-width:1;stroke-dasharray:0}</style><marker id="closed-triangle" viewBox="-1 0 12 10" refX="10.5" refY="5" markerWidth="8" markerHeight="8" orient="auto"><path d="M0 0l10 5-10 5z" fill="#fff"/></marker><marker id="diamond" viewBox="0 -1 10 12" refX="10" refY="5" markerWidth="14" markerHeight="7" orient="auto" preserveAspectRatio="none"><path d="M5 0l5 5-5 5-5-5 5-5z" fill="#fff"/></marker><marker id="arrow" viewBox="-1 0 12 10" refX="10.5" refY="5" markerWidth="8" markerHeight="8" orient="auto"><path d="M0 0l10 5-10 5" fill="transparent"/></marker><path class="yellow" d="M215 55h100v30H215z"/><text x="50" y="21" text-anchor="middle" font-weight="bold" transform="translate(215 55)">Client</text><path class="yellow" d="M585 10h280v120H585z"/><text x="140" y="21" text-anchor="middle" font-weight="bold" transform="translate(585 10)">«Interface»</text><text x="140" y="51" text-anchor="middle" font-weight="bold" transform="translate(585 10)">Visitor</text><path d="M585 68h280"/><text x="13" y="81" text-anchor="middle" transform="translate(585 10)">+</text><text x="30" y="81" transform="translate(585 10)">visit(ConcreteElementA)</text><text x="13" y="111" text-anchor="middle" transform="translate(585 10)">+</text><text x="30" y="111" transform="translate(585 10)">visit(ConcreteElementB)</text><path class="yellow" d="M165 160h200v90H165z"/><text x="100" y="21" text-anchor="middle" font-weight="bold" transform="translate(165 160)">«Interface»</text><text x="100" y="51" text-anchor="middle" font-weight="bold" transform="translate(165 160)">Element</text><path d="M165 218h200"/><text x="13" y="81" text-anchor="middle" transform="translate(165 160)">+</text><text x="30" y="81" transform="translate(165 160)">accept(Visitor)</text><g><path class="yellow" d="M10 310h240v60H10z"/><text x="120" y="21" text-anchor="middle" font-weight="bold" transform="translate(10 310)">ConcreteElementA</text><path d="M10 338h240"/><text x="13" y="51" text-anchor="middle" transform="translate(10 310)">+</text><text x="30" y="51" transform="translate(10 310)">accept(Visitor)</text></g><g><path class="yellow" d="M280 310h240v60H280z"/><text x="120" y="21" text-anchor="middle" font-weight="bold" transform="translate(280 310)">ConcreteElementB</text><path d="M280 338h240"/><text x="13" y="51" text-anchor="middle" transform="translate(280 310)">+</text><text x="30" y="51" transform="translate(280 310)">accept(Visitor)</text></g><g><path class="yellow" d="M430 190h280v90H430z"/><text x="140" y="21" text-anchor="middle" font-weight="bold" transform="translate(430 190)">ConcreteVisitor1</text><path d="M430 218h280"/><text x="13" y="51" text-anchor="middle" transform="translate(430 190)">+</text><text x="30" y="51" transform="translate(430 190)">visit(ConcreteElementA)</text><text x="13" y="81" text-anchor="middle" transform="translate(430 190)">+</text><text x="30" y="81" transform="translate(430 190)">visit(ConcreteElementB)</text></g><g><path class="yellow" d="M740 190h280v90H740z"/><text x="140" y="21" text-anchor="middle" font-weight="bold" transform="translate(740 190)">ConcreteVisitor2</text><path d="M740 218h280"/><text x="13" y="51" text-anchor="middle" transform="translate(740 190)">+</text><text x="30" y="51" transform="translate(740 190)">visit(ConcreteElementA)</text><text x="13" y="81" text-anchor="middle" transform="translate(740 190)">+</text><text x="30" y="81" transform="translate(740 190)">visit(ConcreteElementB)</text></g><path d="M265 280v-30" class="dotted" fill="transparent" stroke-width="2" marker-end="url(#closed-triangle)"/><path d="M130 310v-30h270v30" class="dotted" fill="transparent" stroke-width="2"/><path d="M725 160v-30" class="dotted" fill="transparent" stroke-width="2" marker-end="url(#closed-triangle)"/><path d="M570 190v-30h310v30" class="dotted" fill="transparent" stroke-width="2"/><path d="M265 85v75" class="dotted" fill="transparent" stroke-width="2" marker-end="url(#arrow)"/><path d="M315 70h270" class="dotted" fill="transparent" stroke-width="2" marker-end="url(#arrow)"/></svg>